<?xml version="1.0" encoding="UTF-8"?>
<svg id="pink_new" xmlns="http://www.w3.org/2000/svg" viewBox="0 0 208 332">
  <defs>
    <style>
      .cls-1 {
        fill: #f9ed3b;
      }

      .cls-2 {
        fill: #f8b1b9;
        stroke: #231f20;
        stroke-miterlimit: 10;
      }
    </style>
  </defs>
  <path class="cls-2" d="m146.73,243.21c2.29,1.99,4.14,4.91,5.07,8.39,2.05,7.67-1.1,15.18-7.04,16.77-5.76,1.54-12.02-3.04-14.26-10.3v.43c0,12.15-5.15,22-11.5,22s-11.5-9.85-11.5-22c0,12.15-5.15,22-11.5,22s-11.5-9.85-11.5-22c0,12.15-5.15,22-11.5,22s-11.5-9.85-11.5-22v-.14c-4.01,6.66-11.4,9.6-16.64,6.57-5.33-3.07-6.43-11.14-2.46-18.02.49-.84,1.02-1.62,1.61-2.34-13.87-6.56-22.51-15.81-22.51-26.07s9.34-20.25,24.2-26.84c-7.65-5.88-12.2-13.22-12.2-21.16,0-15.02,16.21-27.82,38.98-32.79-7.92-5.59-12.98-14.14-12.98-23.71,0-16.84,15.67-30.5,35-30.5s35,13.66,35,30.5c0,9.77-5.28,18.47-13.48,24.05,21.98,5.19,37.48,17.77,37.48,32.45,0,7.82-4.4,15.05-11.84,20.88,15.23,6.6,24.84,16.3,24.84,27.12,0,9.56-7.52,18.26-19.77,24.71Z"/>
  <polygon class="cls-1" points="87.85 122.9 89.12 116.05 84.2 111.12 91.11 110.22 94.28 104.01 97.28 110.3 104.15 111.4 99.1 116.19 100.18 123.08 94.06 119.75 87.85 122.9"/>
</svg>