<?xml version="1.0" encoding="utf-8"?>
<!-- Generator: Adobe Illustrator 27.7.0, SVG Export Plug-In . SVG Version: 6.00 Build 0)  -->
<svg version="1.1" id="yellow_new" xmlns="http://www.w3.org/2000/svg" xmlns:xlink="http://www.w3.org/1999/xlink" x="0px" y="0px"
	 viewBox="0 0 208 359" style="enable-background:new 0 0 208 359;" xml:space="preserve">
<style type="text/css">
	.st0{fill:#F8A01C;stroke:#231F20;stroke-miterlimit:10;}
	.st1{fill:#F9ED3B;}
</style>
<script>
console.log("JS file connected");

const vectorgraphics= document.querySelector('#yellow_new')

function logThisid(){
    console.log(this);
    console.log('clicked on this element', this.id);
}

vectorgraphics.addEventListener('click', logThisid);
</script>
<g>
	<path class="st0" d="M146.9,240.2c2.3,2,4.1,4.9,5.1,8.4c2.1,7.7-1.1,15.2-7,16.8c-5.8,1.5-12-3-14.3-10.3v0.4
		c0,12.2-5.2,22-11.5,22s-11.5-9.9-11.5-22c0,12.1-5.2,22-11.5,22s-11.5-9.9-11.5-22c0,12.1-5.2,22-11.5,22s-11.5-9.9-11.5-22v-0.1
		c-4,6.7-11.4,9.6-16.6,6.6c-5.3-3.1-6.4-11.1-2.5-18c0.5-0.8,1-1.6,1.6-2.3c-13.9-6.6-22.5-15.8-22.5-26.1s9.3-20.2,24.2-26.8
		c-7.7-5.9-12.2-13.2-12.2-21.2c0-15,16.2-27.8,39-32.8c-7.9-5.6-13-14.1-13-23.7c0-16.8,15.7-30.5,35-30.5s35,13.7,35,30.5
		c0,9.8-5.3,18.5-13.5,24c22,5.2,37.5,17.8,37.5,32.4c0,7.8-4.4,15.1-11.8,20.9c15.2,6.6,24.8,16.3,24.8,27.1
		C166.7,225.1,159.2,233.8,146.9,240.2L146.9,240.2z"/>
	<polygon class="st1" points="87.8,119.9 89.1,113.1 84.2,108.1 91.1,107.2 94.3,101 97.3,107.3 104.2,108.4 99.1,113.2 
		100.2,120.1 94.1,116.8 	"/>
</g>
</svg>
